<svg xmlns="http://www.w3.org/2000/svg" xmlns:xlink="http://www.w3.org/1999/xlink" width="1040" height="711.3"><rect width="1040" height="711.3" rx="5" ry="5" class="a"/><svg y="0%" x="0%"><circle cx="20" cy="20" r="6" fill="#ff5f58"/><circle cx="40" cy="20" r="6" fill="#ffbd2e"/><circle cx="60" cy="20" r="6" fill="#18c132"/></svg><svg height="651.3" viewBox="0 0 100 65.13" width="1000" x="15" xmlns="http://www.w3.org/2000/svg" xmlns:xlink="http://www.w3.org/1999/xlink" y="50"><style>@keyframes g{0%{transform:translateX(0)}to{transform:translateX(-100px)}}.a{fill:#282d35}.i{fill:#b9c0cb;white-space:pre}</style><g font-family="Monaco,Consolas,Menlo,'Bitstream Vera Sans Mono','Powerline Symbols',monospace" font-size="1.67"><defs><symbol id="a"><path fill="transparent" d="M0 0h100v31H0z"/></symbol></defs><path class="a" d="M0 0h100v65.13H0z"/><g style="animation-duration:.008665s;animation-iteration-count:infinite;animation-name:g;animation-timing-function:steps(1,end)"><svg width="200"><svg><use xlink:href="#a"/></svg><svg x="100"><use xlink:href="#a"/><text y="1.67" class="i">aegis-boot</text><text x="11.022" y="1.67" class="i">—</text><text x="13.026" y="1.67" class="i">Signed</text><text x="20.04" y="1.67" class="i">boot.</text><text x="26.052" y="1.67" class="i">Any</text><text x="30.06" y="1.67" class="i">ISO.</text><text x="35.07" y="1.67" class="i">Your</text><text x="40.08" y="1.67" class="i">keys.</text><text y="6.012" class="i">aegis-boot</text><text x="11.022" y="6.012" class="i">is</text><text x="14.028" y="6.012" class="i">a</text><text x="16.032" y="6.012" class="i">USB</text><text x="20.04" y="6.012" class="i">rescue-stick</text><text x="33.066" y="6.012" class="i">builder</text><text x="41.082" y="6.012" class="i">with</text><text x="46.092" y="6.012" class="i">Secure</text><text x="53.106" y="6.012" class="i">Boot</text><text x="58.116" y="6.012" class="i">built-in.</text><text y="8.183" class="i">Other</text><text x="6.012" y="8.183" class="i">multi-ISO</text><text x="16.032" y="8.183" class="i">tools</text><text x="22.044" y="8.183" class="i">(Ventoy,</text><text x="31.062" y="8.183" class="i">YUMI)</text><text x="37.074" y="8.183" class="i">ask</text><text x="41.082" y="8.183" class="i">you</text><text x="45.09" y="8.183" class="i">to</text><text x="48.096" y="8.183" class="i">disable</text><text x="56.112" y="8.183" class="i">Secure</text><text x="63.126" y="8.183" class="i">Boot</text><text y="10.354" class="i">OR</text><text x="3.006" y="10.354" class="i">enroll</text><text x="10.02" y="10.354" class="i">their</text><text x="16.032" y="10.354" class="i">key</text><text x="20.04" y="10.354" class="i">into</text><text x="25.05" y="10.354" class="i">your</text><text x="30.06" y="10.354" class="i">firmware.</text><text x="40.08" y="10.354" class="i">aegis-boot</text><text x="51.102" y="10.354" class="i">reuses</text><text x="58.116" y="10.354" class="i">the</text><text x="62.124" y="10.354" class="i">same</text><text y="12.525" class="i">Microsoft-signed</text><text x="17.034" y="12.525" class="i">shim</text><text x="22.044" y="12.525" class="i">→</text><text x="24.048" y="12.525" class="i">grub</text><text x="29.058" y="12.525" class="i">→</text><text x="31.062" y="12.525" class="i">kernel</text><text x="38.076" y="12.525" class="i">chain</text><text x="44.088" y="12.525" class="i">real</text><text x="49.098" y="12.525" class="i">distros</text><text x="57.114" y="12.525" class="i">use,</text><text x="62.124" y="12.525" class="i">so</text><text x="65.13" y="12.525" class="i">the</text><text y="14.696" class="i">stick</text><text x="6.012" y="14.696" class="i">boots</text><text x="12.024" y="14.696" class="i">on</text><text x="15.03" y="14.696" class="i">every</text><text x="21.042" y="14.696" class="i">laptop</text><text x="28.056" y="14.696" class="i">with</text><text x="33.066" y="14.696" class="i">default</text><text x="41.082" y="14.696" class="i">firmware</text><text x="50.1" y="14.696" class="i">out</text><text x="54.108" y="14.696" class="i">of</text><text x="57.114" y="14.696" class="i">the</text><text x="61.122" y="14.696" class="i">box.</text><text y="19.038" class="i">You&apos;re</text><text x="7.014" y="19.038" class="i">4</text><text x="9.018" y="19.038" class="i">commands</text><text x="18.036" y="19.038" class="i">away</text><text x="23.046" y="19.038" class="i">from</text><text x="28.056" y="19.038" class="i">a</text><text x="30.06" y="19.038" class="i">working</text><text x="38.076" y="19.038" class="i">rescue</text><text x="45.09" y="19.038" class="i">stick:</text><text x="2.004" y="23.38" class="i">1.</text><text x="5.01" y="23.38" class="i">aegis-boot</text><text x="16.032" y="23.38" class="i">doctor</text><text x="38.076" y="23.38" class="i">check</text><text x="44.088" y="23.38" class="i">your</text><text x="49.098" y="23.38" class="i">host</text><text x="54.108" y="23.38" class="i">has</text><text x="58.116" y="23.38" class="i">the</text><text x="62.124" y="23.38" class="i">prereqs</text><text x="2.004" y="25.551" class="i">2.</text><text x="5.01" y="25.551" class="i">aegis-boot</text><text x="16.032" y="25.551" class="i">init</text><text x="21.042" y="25.551" class="i">/dev/sdX</text><text x="38.076" y="25.551" class="i">flash</text><text x="44.088" y="25.551" class="i">a</text><text x="46.092" y="25.551" class="i">fresh</text><text x="52.104" y="25.551" class="i">USB</text><text x="56.112" y="25.551" class="i">stick</text><text x="2.004" y="27.722" class="i">3.</text><text x="5.01" y="27.722" class="i">aegis-boot</text><text x="16.032" y="27.722" class="i">fetch</text><text x="22.044" y="27.722" class="i">ubuntu-24.04</text><text x="37.074" y="27.722" class="i">download</text><text x="46.092" y="27.722" class="i">a</text><text x="48.096" y="27.722" class="i">verified</text><text x="57.114" y="27.722" class="i">rescue</text><text x="64.128" y="27.722" class="i">ISO</text><text x="2.004" y="29.893" class="i">4.</text><text x="5.01" y="29.893" class="i">aegis-boot</text><text x="16.032" y="29.893" class="i">add</text><text x="20.04" y="29.893" class="i">ubuntu.iso</text><text x="37.074" y="29.893" class="i">copy</text><text x="42.084" y="29.893" class="i">the</text><text x="46.092" y="29.893" class="i">ISO</text><text x="50.1" y="29.893" class="i">onto</text><text x="55.11" y="29.893" class="i">the</text><text x="59.118" y="29.893" class="i">stick</text><text y="34.235" class="i">Each</text><text x="5.01" y="34.235" class="i">subcommand</text><text x="16.032" y="34.235" class="i">accepts</text><text x="24.048" y="34.235" class="i">--help</text><text x="31.062" y="34.235" class="i">for</text><text x="35.07" y="34.235" class="i">full</text><text x="40.08" y="34.235" class="i">usage</text><text x="46.092" y="34.235" class="i">and</text><text x="50.1" y="34.235" class="i">examples.</text><text y="38.577" class="i">To</text><text x="3.006" y="38.577" class="i">learn</text><text x="9.018" y="38.577" class="i">the</text><text x="13.026" y="38.577" class="i">trust</text><text x="19.038" y="38.577" class="i">model:</text><text x="2.004" y="40.748" class="i">-</text><text x="4.008" y="40.748" class="i">docs/HOW_IT_WORKS.md</text><text x="34.068" y="40.748" class="i">5-minute</text><text x="43.086" y="40.748" class="i">conceptual</text><text x="54.108" y="40.748" class="i">walkthrough</text><text x="2.004" y="42.919" class="i">-</text><text x="4.008" y="42.919" class="i">docs/TOUR.md</text><text x="34.068" y="42.919" class="i">step-by-step</text><text x="47.094" y="42.919" class="i">first-time</text><text x="58.116" y="42.919" class="i">guide</text><text x="2.004" y="45.09" class="i">-</text><text x="4.008" y="45.09" class="i">docs/USB_LAYOUT.md</text><text x="34.068" y="45.09" class="i">partition</text><text x="44.088" y="45.09" class="i">layout</text><text x="51.102" y="45.09" class="i">+</text><text x="53.106" y="45.09" class="i">signed-chain</text><text x="66.132" y="45.09" class="i">map</text><text y="49.432" class="i">To</text><text x="3.006" y="49.432" class="i">see</text><text x="7.014" y="49.432" class="i">your</text><text x="12.024" y="49.432" class="i">laptop&apos;s</text><text x="21.042" y="49.432" class="i">compatibility:</text><text x="37.074" y="49.432" class="i">aegis-boot</text><text x="48.096" y="49.432" class="i">compat</text><text x="55.11" y="49.432" class="i">--my-machine</text><text y="51.603" class="i">To</text><text x="3.006" y="51.603" class="i">see</text><text x="7.014" y="51.603" class="i">what&apos;s</text><text x="14.028" y="51.603" class="i">on</text><text x="17.034" y="51.603" class="i">a</text><text x="19.038" y="51.603" class="i">stick:</text><text x="37.074" y="51.603" class="i">aegis-boot</text><text x="48.096" y="51.603" class="i">list</text><text x="53.106" y="51.603" class="i">/dev/sdX</text><text y="53.774" class="i">To</text><text x="3.006" y="53.774" class="i">audit</text><text x="9.018" y="53.774" class="i">past</text><text x="14.028" y="53.774" class="i">flashes:</text><text x="37.074" y="53.774" class="i">aegis-boot</text><text x="48.096" y="53.774" class="i">attest</text><text x="55.11" y="53.774" class="i">list</text><text y="58.116" class="i">For</text><text x="4.008" y="58.116" class="i">the</text><text x="8.016" y="58.116" class="i">full</text><text x="13.026" y="58.116" class="i">subcommand</text><text x="24.048" y="58.116" class="i">list:</text><text x="37.074" y="58.116" class="i">aegis-boot</text><text x="48.096" y="58.116" class="i">--help</text></svg></svg></g></g></svg></svg>