<svg xmlns="http://www.w3.org/2000/svg" xmlns:xlink="http://www.w3.org/1999/xlink" width="1040" height="711.3"><rect width="1040" height="711.3" rx="5" ry="5" class="a"/><svg y="0%" x="0%"><circle cx="20" cy="20" r="6" fill="#ff5f58"/><circle cx="40" cy="20" r="6" fill="#ffbd2e"/><circle cx="60" cy="20" r="6" fill="#18c132"/></svg><svg height="651.3" viewBox="0 0 100 65.13" width="1000" x="15" xmlns="http://www.w3.org/2000/svg" xmlns:xlink="http://www.w3.org/1999/xlink" y="50"><style>@keyframes h{0%{transform:translateX(0)}90.4%{transform:translateX(-100px)}to{transform:translateX(-200px)}}.a{fill:#282d35}.f{fill:#b9c0cb;white-space:pre}</style><g font-family="Monaco,Consolas,Menlo,'Bitstream Vera Sans Mono','Powerline Symbols',monospace" font-size="1.67"><defs><symbol id="1"><text y="1.67" class="f">at</text><text x="3.006" y="1.67" class="f">/</text><text x="5.01" y="1.67" class="f">Fedora)</text></symbol><symbol id="2"><text x="1.002" y="1.67" class="f">needed)</text></symbol><symbol id="3"><text y="1.67" class="f">ical</text><text x="5.01" y="1.67" class="f">CA)</text></symbol><symbol id="4"><text x="2.004" y="1.67" class="f">SLUG</text><text x="36.072" y="1.67" class="f">NAME</text><text x="79.158" y="1.67" class="f">SIZE</text><text x="85.17" y="1.67" class="f">SECURE</text><text x="92.184" y="1.67" class="f">BOOT</text></symbol><symbol id="5"><text x="2.004" y="1.67" class="f">--------------------------------</text><text x="36.072" y="1.67" class="f">--------------------------------------</text><text x="76.152" y="1.67" class="f">-------</text><text x="85.17" y="1.67" class="f">---------------</text></symbol><symbol id="6"><text y="1.67" class="f">-------------</text></symbol><symbol id="7"><text y="1.67" class="f">n</text><text x="2.004" y="1.67" class="f">CA</text><text x="5.01" y="1.67" class="f">via</text><text x="9.018" y="1.67" class="f">shim)</text></symbol><symbol id="a"><path fill="transparent" d="M0 0h100v31H0z"/></symbol></defs><path class="a" d="M0 0h100v65.13H0z"/><g style="animation-duration:.006891s;animation-iteration-count:infinite;animation-name:h;animation-timing-function:steps(1,end)"><svg width="300"><svg><use xlink:href="#a"/></svg><svg x="100"><use xlink:href="#a"/><text x="2.004" y="1.67" class="f">fedora-43-workstation</text><text x="36.072" y="1.67" class="f">Fedora</text><text x="43.086" y="1.67" class="f">43</text><text x="46.092" y="1.67" class="f">Workstation</text><text x="58.116" y="1.67" class="f">Live</text><text x="76.152" y="1.67" class="f">2.5</text><text x="80.16" y="1.67" class="f">GiB</text><text x="85.17" y="1.67" class="f">✓</text><text x="87.174" y="1.67" class="f">signed</text><text x="94.188" y="1.67" class="f">(Red</text><text x="99.198" y="1.67" class="f">H</text><use xlink:href="#1" y="2.171"/><text x="2.004" y="6.012" class="f">fedora-43-workstation-arm64</text><text x="36.072" y="6.012" class="f">Fedora</text><text x="43.086" y="6.012" class="f">43</text><text x="46.092" y="6.012" class="f">Workstation</text><text x="58.116" y="6.012" class="f">Live</text><text x="63.126" y="6.012" class="f">(arm64)</text><text x="76.152" y="6.012" class="f">2.3</text><text x="80.16" y="6.012" class="f">GiB</text><text x="85.17" y="6.012" class="f">✓</text><text x="87.174" y="6.012" class="f">signed</text><text x="94.188" y="6.012" class="f">(Red</text><text x="99.198" y="6.012" class="f">H</text><use xlink:href="#1" y="6.513"/><text x="2.004" y="10.354" class="f">linuxmint-22-cinnamon</text><text x="36.072" y="10.354" class="f">Linux</text><text x="42.084" y="10.354" class="f">Mint</text><text x="47.094" y="10.354" class="f">22.3</text><text x="52.104" y="10.354" class="f">Cinnamon</text><text x="76.152" y="10.354" class="f">2.8</text><text x="80.16" y="10.354" class="f">GiB</text><text x="85.17" y="10.354" class="f">✓</text><text x="87.174" y="10.354" class="f">signed</text><text x="94.188" y="10.354" class="f">(Linux</text><text x="1.002" y="12.525" class="f">Mint)</text><text x="2.004" y="14.696" class="f">manjaro-26-kde</text><text x="36.072" y="14.696" class="f">Manjaro</text><text x="44.088" y="14.696" class="f">26.0.4</text><text x="51.102" y="14.696" class="f">KDE</text><text x="76.152" y="14.696" class="f">3.6</text><text x="80.16" y="14.696" class="f">GiB</text><text x="85.17" y="14.696" class="f">✗</text><text x="87.174" y="14.696" class="f">unsigned</text><text x="96.192" y="14.696" class="f">(MOK</text><use xlink:href="#2" y="15.197"/><text x="2.004" y="19.038" class="f">mx-25.1-ahs-xfce</text><text x="36.072" y="19.038" class="f">MX</text><text x="39.078" y="19.038" class="f">Linux</text><text x="45.09" y="19.038" class="f">25.1</text><text x="50.1" y="19.038" class="f">AHS</text><text x="54.108" y="19.038" class="f">Xfce</text><text x="76.152" y="19.038" class="f">3.1</text><text x="80.16" y="19.038" class="f">GiB</text><text x="85.17" y="19.038" class="f">✓</text><text x="87.174" y="19.038" class="f">signed</text><text x="94.188" y="19.038" class="f">(Debia</text><text y="21.209" class="f">n</text><text x="2.004" y="21.209" class="f">shim</text><text x="7.014" y="21.209" class="f">chain</text><text x="13.026" y="21.209" class="f">(MX</text><text x="17.034" y="21.209" class="f">kernel))</text><text x="2.004" y="23.38" class="f">popos-24.04-intel</text><text x="36.072" y="23.38" class="f">Pop!_OS</text><text x="44.088" y="23.38" class="f">24.04</text><text x="50.1" y="23.38" class="f">(Intel)</text><text x="76.152" y="23.38" class="f">2.8</text><text x="80.16" y="23.38" class="f">GiB</text><text x="85.17" y="23.38" class="f">✓</text><text x="87.174" y="23.38" class="f">signed</text><text x="94.188" y="23.38" class="f">(Syste</text><text y="25.551" class="f">m76</text><text x="4.008" y="25.551" class="f">/</text><text x="6.012" y="25.551" class="f">Canonical</text><text x="16.032" y="25.551" class="f">CA)</text><text x="2.004" y="27.722" class="f">ubuntu-24.04-desktop</text><text x="36.072" y="27.722" class="f">Ubuntu</text><text x="43.086" y="27.722" class="f">Desktop</text><text x="51.102" y="27.722" class="f">24.04.4</text><text x="59.118" y="27.722" class="f">LTS</text><text x="76.152" y="27.722" class="f">5.7</text><text x="80.16" y="27.722" class="f">GiB</text><text x="85.17" y="27.722" class="f">✓</text><text x="87.174" y="27.722" class="f">signed</text><text x="94.188" y="27.722" class="f">(Canon</text><use xlink:href="#3" y="28.223"/><text y="34.235" class="f">SERVER</text><text x="7.014" y="34.235" class="f">(3)</text><use xlink:href="#4" y="34.736"/><use xlink:href="#5" y="36.907"/><use xlink:href="#6" y="39.078"/><text x="2.004" y="42.919" class="f">fedora-43-server</text><text x="36.072" y="42.919" class="f">Fedora</text><text x="43.086" y="42.919" class="f">43</text><text x="46.092" y="42.919" class="f">Server</text><text x="53.106" y="42.919" class="f">(DVD)</text><text x="76.152" y="42.919" class="f">2.2</text><text x="80.16" y="42.919" class="f">GiB</text><text x="85.17" y="42.919" class="f">✓</text><text x="87.174" y="42.919" class="f">signed</text><text x="94.188" y="42.919" class="f">(Red</text><text x="99.198" y="42.919" class="f">H</text><use xlink:href="#1" y="43.42"/><text x="2.004" y="47.261" class="f">ubuntu-24.04-live-server</text><text x="36.072" y="47.261" class="f">Ubuntu</text><text x="43.086" y="47.261" class="f">Server</text><text x="50.1" y="47.261" class="f">24.04.4</text><text x="58.116" y="47.261" class="f">LTS</text><text x="62.124" y="47.261" class="f">(live-serve…</text><text x="76.152" y="47.261" class="f">2.5</text><text x="80.16" y="47.261" class="f">GiB</text><text x="85.17" y="47.261" class="f">✓</text><text x="87.174" y="47.261" class="f">signed</text><text x="94.188" y="47.261" class="f">(Canon</text><use xlink:href="#3" y="47.762"/><text x="2.004" y="51.603" class="f">ubuntu-24.04-live-server-arm64</text><text x="36.072" y="51.603" class="f">Ubuntu</text><text x="43.086" y="51.603" class="f">Server</text><text x="50.1" y="51.603" class="f">24.04.4</text><text x="58.116" y="51.603" class="f">LTS</text><text x="62.124" y="51.603" class="f">(arm64)</text><text x="76.152" y="51.603" class="f">2.6</text><text x="80.16" y="51.603" class="f">GiB</text><text x="85.17" y="51.603" class="f">✓</text><text x="87.174" y="51.603" class="f">signed</text><text x="94.188" y="51.603" class="f">(Canon</text><use xlink:href="#3" y="52.104"/><text y="58.116" class="f">INSTALLER</text><text x="10.02" y="58.116" class="f">(6)</text><use xlink:href="#4" y="58.617"/><use xlink:href="#5" y="60.788"/><use xlink:href="#6" y="62.959"/></svg><svg x="200"><use xlink:href="#a"/><use xlink:href="#6"/><text x="2.004" y="3.841" class="f">almalinux-9-minimal</text><text x="36.072" y="3.841" class="f">AlmaLinux</text><text x="46.092" y="3.841" class="f">9</text><text x="48.096" y="3.841" class="f">Minimal</text><text x="76.152" y="3.841" class="f">1.7</text><text x="80.16" y="3.841" class="f">GiB</text><text x="85.17" y="3.841" class="f">✓</text><text x="87.174" y="3.841" class="f">signed</text><text x="94.188" y="3.841" class="f">(Red</text><text x="99.198" y="3.841" class="f">H</text><text y="6.012" class="f">at</text><text x="3.006" y="6.012" class="f">/</text><text x="5.01" y="6.012" class="f">AlmaLinux)</text><text x="2.004" y="8.183" class="f">debian-13-netinst</text><text x="36.072" y="8.183" class="f">Debian</text><text x="43.086" y="8.183" class="f">13</text><text x="46.092" y="8.183" class="f">(trixie)</text><text x="55.11" y="8.183" class="f">Netinst</text><text x="76.152" y="8.183" class="f">720</text><text x="80.16" y="8.183" class="f">MiB</text><text x="85.17" y="8.183" class="f">✓</text><text x="87.174" y="8.183" class="f">signed</text><text x="94.188" y="8.183" class="f">(Debia</text><use xlink:href="#7" y="8.684"/><text x="2.004" y="12.525" class="f">debian-13-netinst-arm64</text><text x="36.072" y="12.525" class="f">Debian</text><text x="43.086" y="12.525" class="f">13</text><text x="46.092" y="12.525" class="f">(trixie)</text><text x="55.11" y="12.525" class="f">Netinst</text><text x="63.126" y="12.525" class="f">(arm64)</text><text x="76.152" y="12.525" class="f">720</text><text x="80.16" y="12.525" class="f">MiB</text><text x="85.17" y="12.525" class="f">✓</text><text x="87.174" y="12.525" class="f">signed</text><text x="94.188" y="12.525" class="f">(Debia</text><use xlink:href="#7" y="13.026"/><text x="2.004" y="16.867" class="f">kali-2026.1-installer</text><text x="36.072" y="16.867" class="f">Kali</text><text x="41.082" y="16.867" class="f">Linux</text><text x="47.094" y="16.867" class="f">2026.1</text><text x="54.108" y="16.867" class="f">(installer)</text><text x="76.152" y="16.867" class="f">4.4</text><text x="80.16" y="16.867" class="f">GiB</text><text x="85.17" y="16.867" class="f">✓</text><text x="87.174" y="16.867" class="f">signed</text><text x="94.188" y="16.867" class="f">(Kali</text><text y="19.038" class="f">/</text><text x="2.004" y="19.038" class="f">Debian</text><text x="9.018" y="19.038" class="f">shim</text><text x="14.028" y="19.038" class="f">chain)</text><text x="2.004" y="21.209" class="f">opensuse-leap-15.6-dvd</text><text x="36.072" y="21.209" class="f">openSUSE</text><text x="45.09" y="21.209" class="f">Leap</text><text x="50.1" y="21.209" class="f">15.6</text><text x="55.11" y="21.209" class="f">DVD</text><text x="76.152" y="21.209" class="f">4.3</text><text x="80.16" y="21.209" class="f">GiB</text><text x="85.17" y="21.209" class="f">✓</text><text x="87.174" y="21.209" class="f">signed</text><text x="94.188" y="21.209" class="f">(SUSE</text><text y="23.38" class="f">CA)</text><text x="2.004" y="25.551" class="f">rocky-9-minimal</text><text x="36.072" y="25.551" class="f">Rocky</text><text x="42.084" y="25.551" class="f">Linux</text><text x="48.096" y="25.551" class="f">9</text><text x="50.1" y="25.551" class="f">Minimal</text><text x="76.152" y="25.551" class="f">1.9</text><text x="80.16" y="25.551" class="f">GiB</text><text x="85.17" y="25.551" class="f">✓</text><text x="87.174" y="25.551" class="f">signed</text><text x="94.188" y="25.551" class="f">(Rocky</text><text x="1.002" y="27.722" class="f">Linux)</text><text y="32.064" class="f">RESCUE</text><text x="7.014" y="32.064" class="f">/</text><text x="9.018" y="32.064" class="f">FORENSIC</text><text x="18.036" y="32.064" class="f">(4)</text><use xlink:href="#4" y="32.565"/><use xlink:href="#5" y="34.736"/><use xlink:href="#6" y="36.907"/><text x="2.004" y="40.748" class="f">alpine-3.20-standard</text><text x="36.072" y="40.748" class="f">Alpine</text><text x="43.086" y="40.748" class="f">Linux</text><text x="49.098" y="40.748" class="f">3.20</text><text x="54.108" y="40.748" class="f">Standard</text><text x="76.152" y="40.748" class="f">198</text><text x="80.16" y="40.748" class="f">MiB</text><text x="85.17" y="40.748" class="f">✗</text><text x="87.174" y="40.748" class="f">unsigned</text><text x="96.192" y="40.748" class="f">(MOK</text><use xlink:href="#2" y="41.249"/><text x="2.004" y="45.09" class="f">alpine-3.20-standard-arm64</text><text x="36.072" y="45.09" class="f">Alpine</text><text x="43.086" y="45.09" class="f">Linux</text><text x="49.098" y="45.09" class="f">3.20</text><text x="54.108" y="45.09" class="f">Standard</text><text x="63.126" y="45.09" class="f">(arm64)</text><text x="76.152" y="45.09" class="f">200</text><text x="80.16" y="45.09" class="f">MiB</text><text x="85.17" y="45.09" class="f">✗</text><text x="87.174" y="45.09" class="f">unsigned</text><text x="96.192" y="45.09" class="f">(MOK</text><use xlink:href="#2" y="45.591"/><text x="2.004" y="49.432" class="f">gparted-live-1.8.1</text><text x="36.072" y="49.432" class="f">GParted</text><text x="44.088" y="49.432" class="f">Live</text><text x="49.098" y="49.432" class="f">1.8.1-3</text><text x="76.152" y="49.432" class="f">500</text><text x="80.16" y="49.432" class="f">MiB</text><text x="85.17" y="49.432" class="f">✓</text><text x="87.174" y="49.432" class="f">signed</text><text x="94.188" y="49.432" class="f">(Debia</text><text y="51.603" class="f">n</text><text x="2.004" y="51.603" class="f">shim</text><text x="7.014" y="51.603" class="f">chain</text><text x="13.026" y="51.603" class="f">(GParted))</text><text x="2.004" y="53.774" class="f">systemrescue-13.00</text><text x="36.072" y="53.774" class="f">SystemRescue</text><text x="49.098" y="53.774" class="f">13.00</text><text x="76.152" y="53.774" class="f">900</text><text x="80.16" y="53.774" class="f">MiB</text><text x="85.17" y="53.774" class="f">✗</text><text x="87.174" y="53.774" class="f">unsigned</text><text x="96.192" y="53.774" class="f">(MOK</text><use xlink:href="#2" y="54.275"/><text y="60.287" class="f">Use</text><text x="4.008" y="60.287" class="f">&apos;aegis-boot</text><text x="16.032" y="60.287" class="f">recommend</text><text x="26.052" y="60.287" class="f">&lt;SLUG&gt;&apos;</text><text x="34.068" y="60.287" class="f">for</text><text x="38.076" y="60.287" class="f">download</text><text x="47.094" y="60.287" class="f">+</text><text x="49.098" y="60.287" class="f">verify</text><text x="56.112" y="60.287" class="f">instructions.</text><text y="62.458" class="f">Entries</text><text x="8.016" y="62.458" class="f">marked</text><text x="15.03" y="62.458" class="f">&apos;✗</text><text x="18.036" y="62.458" class="f">unsigned</text><text x="27.054" y="62.458" class="f">(MOK</text><text x="32.064" y="62.458" class="f">needed)&apos;</text><text x="41.082" y="62.458" class="f">require</text><text x="49.098" y="62.458" class="f">explicit</text><text x="58.116" y="62.458" class="f">MOK</text><text y="64.629" class="f">enrollment</text><text x="11.022" y="64.629" class="f">of</text><text x="14.028" y="64.629" class="f">the</text><text x="18.036" y="64.629" class="f">distro&apos;s</text><text x="27.054" y="64.629" class="f">signing</text><text x="35.07" y="64.629" class="f">key</text><text x="39.078" y="64.629" class="f">—</text><text x="41.082" y="64.629" class="f">see</text><text x="45.09" y="64.629" class="f">docs/UNSIGNED_KERNEL.md.</text></svg></svg></g></g></svg></svg>