<svg xmlns="http://www.w3.org/2000/svg" xmlns:xlink="http://www.w3.org/1999/xlink" width="1040" height="711.3"><rect width="1040" height="711.3" rx="5" ry="5" class="a"/><svg y="0%" x="0%"><circle cx="20" cy="20" r="6" fill="#ff5f58"/><circle cx="40" cy="20" r="6" fill="#ffbd2e"/><circle cx="60" cy="20" r="6" fill="#18c132"/></svg><svg height="651.3" viewBox="0 0 100 65.13" width="1000" x="15" xmlns="http://www.w3.org/2000/svg" xmlns:xlink="http://www.w3.org/1999/xlink" y="50"><style>@keyframes g{0%{transform:translateX(0)}to{transform:translateX(-100px)}}.a{fill:#282d35}.i{fill:#b9c0cb;white-space:pre}</style><g font-family="Monaco,Consolas,Menlo,'Bitstream Vera Sans Mono','Powerline Symbols',monospace" font-size="1.67"><defs><symbol id="a"><path fill="transparent" d="M0 0h100v31H0z"/></symbol></defs><path class="a" d="M0 0h100v65.13H0z"/><g style="animation-duration:.008013s;animation-iteration-count:infinite;animation-name:g;animation-timing-function:steps(1,end)"><svg width="200"><svg><use xlink:href="#a"/></svg><svg x="100"><use xlink:href="#a"/><text y="1.67" class="i">Ubuntu</text><text x="7.014" y="1.67" class="i">Server</text><text x="14.028" y="1.67" class="i">24.04.4</text><text x="22.044" y="1.67" class="i">LTS</text><text x="26.052" y="1.67" class="i">(live-server)</text><text x="40.08" y="1.67" class="i">—</text><text x="42.084" y="1.67" class="i">signed</text><text x="49.098" y="1.67" class="i">(Canonical</text><text x="60.12" y="1.67" class="i">CA)</text><text x="2.004" y="6.012" class="i">Slug:</text><text x="15.03" y="6.012" class="i">ubuntu-24.04-live-server</text><text x="2.004" y="8.183" class="i">Architecture:</text><text x="16.032" y="8.183" class="i">x86_64</text><text x="2.004" y="10.354" class="i">Approx</text><text x="9.018" y="10.354" class="i">size:</text><text x="16.032" y="10.354" class="i">2.5</text><text x="20.04" y="10.354" class="i">GiB</text><text x="24.048" y="10.354" class="i">(2600</text><text x="30.06" y="10.354" class="i">MiB)</text><text x="2.004" y="12.525" class="i">Purpose:</text><text x="16.032" y="12.525" class="i">Ubuntu</text><text x="23.046" y="12.525" class="i">LTS</text><text x="27.054" y="12.525" class="i">server</text><text x="34.068" y="12.525" class="i">installer.</text><text x="45.09" y="12.525" class="i">Validated</text><text x="55.11" y="12.525" class="i">under</text><text x="61.122" y="12.525" class="i">aegis-boot</text><text x="72.144" y="12.525" class="i">v0.12.0</text><text x="80.16" y="12.525" class="i">#109.</text><text x="2.004" y="16.867" class="i">ISO</text><text x="6.012" y="16.867" class="i">URL:</text><text x="16.032" y="16.867" class="i">https://releases.ubuntu.com/24.04/ubuntu-24.04.4-live-server-amd64.iso</text><text x="2.004" y="19.038" class="i">SHA256SUMS:</text><text x="16.032" y="19.038" class="i">https://releases.ubuntu.com/24.04/SHA256SUMS</text><text x="2.004" y="21.209" class="i">Signature:</text><text x="16.032" y="21.209" class="i">https://releases.ubuntu.com/24.04/SHA256SUMS.gpg</text><text y="25.551" class="i">Manual</text><text x="7.014" y="25.551" class="i">download</text><text x="16.032" y="25.551" class="i">+</text><text x="18.036" y="25.551" class="i">verify</text><text x="25.05" y="25.551" class="i">+</text><text x="27.054" y="25.551" class="i">add</text><text x="31.062" y="25.551" class="i">(Linux</text><text x="38.076" y="25.551" class="i">host):</text><text x="2.004" y="29.893" class="i">curl</text><text x="7.014" y="29.893" class="i">-LO</text><text x="11.022" y="29.893" class="i">&apos;https://releases.ubuntu.com/24.04/ubuntu-24.04.4-live-server-amd64.iso&apos;</text><text x="2.004" y="32.064" class="i">curl</text><text x="7.014" y="32.064" class="i">-LO</text><text x="11.022" y="32.064" class="i">&apos;https://releases.ubuntu.com/24.04/SHA256SUMS&apos;</text><text x="2.004" y="34.235" class="i">curl</text><text x="7.014" y="34.235" class="i">-LO</text><text x="11.022" y="34.235" class="i">&apos;https://releases.ubuntu.com/24.04/SHA256SUMS.gpg&apos;</text><text x="2.004" y="38.577" class="i">#</text><text x="4.008" y="38.577" class="i">Verify</text><text x="11.022" y="38.577" class="i">the</text><text x="15.03" y="38.577" class="i">SHA256SUMS</text><text x="26.052" y="38.577" class="i">file&apos;s</text><text x="33.066" y="38.577" class="i">signature</text><text x="43.086" y="38.577" class="i">using</text><text x="49.098" y="38.577" class="i">the</text><text x="53.106" y="38.577" class="i">project&apos;s</text><text x="2.004" y="40.748" class="i">#</text><text x="4.008" y="40.748" class="i">signing</text><text x="12.024" y="40.748" class="i">key</text><text x="16.032" y="40.748" class="i">(consult</text><text x="25.05" y="40.748" class="i">the</text><text x="29.058" y="40.748" class="i">project</text><text x="37.074" y="40.748" class="i">for</text><text x="41.082" y="40.748" class="i">key</text><text x="45.09" y="40.748" class="i">fingerprint),</text><text x="59.118" y="40.748" class="i">then:</text><text x="2.004" y="42.919" class="i">sha256sum</text><text x="12.024" y="42.919" class="i">-c</text><text x="15.03" y="42.919" class="i">&lt;SHA256SUMS&gt;</text><text x="28.056" y="42.919" class="i">--ignore-missing</text><text x="2.004" y="45.09" class="i">aegis-boot</text><text x="13.026" y="45.09" class="i">add</text><text x="17.034" y="45.09" class="i">&lt;iso-filename&gt;</text><text y="49.432" class="i">Once</text><text x="5.01" y="49.432" class="i">verified</text><text x="14.028" y="49.432" class="i">+</text><text x="16.032" y="49.432" class="i">on</text><text x="19.038" y="49.432" class="i">the</text><text x="23.046" y="49.432" class="i">stick,</text><text x="30.06" y="49.432" class="i">the</text><text x="34.068" y="49.432" class="i">rescue-tui</text><text x="45.09" y="49.432" class="i">will</text><text x="50.1" y="49.432" class="i">show</text><text x="55.11" y="49.432" class="i">this</text><text x="60.12" y="49.432" class="i">ISO</text><text x="64.128" y="49.432" class="i">with</text><text x="69.138" y="49.432" class="i">the</text><text y="51.603" class="i">verification</text><text x="13.026" y="51.603" class="i">verdict.</text><text x="22.044" y="51.603" class="i">Tracked</text><text x="30.06" y="51.603" class="i">in</text><text x="33.066" y="51.603" class="i">epic</text><text x="38.076" y="51.603" class="i">#136</text><text x="43.086" y="51.603" class="i">for</text><text x="47.094" y="51.603" class="i">future</text><text x="54.108" y="51.603" class="i">`aegis-boot</text><text x="66.132" y="51.603" class="i">fetch</text><text x="72.144" y="51.603" class="i">&lt;slug&gt;`</text><text y="53.774" class="i">which</text><text x="6.012" y="53.774" class="i">will</text><text x="11.022" y="53.774" class="i">automate</text><text x="20.04" y="53.774" class="i">the</text><text x="24.048" y="53.774" class="i">manual</text><text x="31.062" y="53.774" class="i">recipe</text><text x="38.076" y="53.774" class="i">above.</text></svg></svg></g></g></svg></svg>